<svg width="65" height="65" viewBox="0 0 65 65" fill="none" xmlns="http://www.w3.org/2000/svg">
<path d="M32.5 0C14.5546 0 0 14.5519 0 32.5C0 46.8596 9.31125 59.0417 22.2273 63.3398C23.8496 63.6404 24.375 62.6329 24.375 61.7771V55.7267C15.3346 57.6929 13.4523 51.8917 13.4523 51.8917C11.9735 48.1352 9.84208 47.1358 9.84208 47.1358C6.89271 45.1181 10.0669 45.1615 10.0669 45.1615C13.3304 45.389 15.0475 48.5117 15.0475 48.5117C17.9454 53.4788 22.6498 52.0433 24.505 51.2119C24.7948 49.1129 25.6371 47.6775 26.5688 46.8677C19.351 46.0417 11.7623 43.2548 11.7623 30.8046C11.7623 27.254 13.0325 24.356 15.1098 22.081C14.774 21.2604 13.6608 17.9535 15.4267 13.4794C15.4267 13.4794 18.1567 12.6073 24.3669 16.8106C26.9587 16.0902 29.7375 15.73 32.5 15.7165C35.2625 15.73 38.044 16.0902 40.6412 16.8106C46.846 12.6073 49.5706 13.4794 49.5706 13.4794C51.3392 17.9563 50.226 21.2631 49.8902 22.081C51.9756 24.356 53.235 27.2567 53.235 30.8046C53.235 43.2873 45.6327 46.0362 38.396 46.8406C39.5606 47.8481 40.625 49.8252 40.625 52.8585V61.7771C40.625 62.641 41.145 63.6567 42.7944 63.3371C55.6996 59.0335 65 46.8542 65 32.5C65 14.5519 50.4481 0 32.5 0Z" fill="#E66465"/>
</svg>
