<svg width="107" height="119" viewBox="0 0 107 119" fill="none" xmlns="http://www.w3.org/2000/svg">
<path d="M46.9628 119C20.7197 106.336 2.37333 80.6797 0.0570531 53.4058C-1.27191 37.7576 20.9051 26.93 36.3818 33.3989C51.8586 39.8677 58.9253 57.4233 57.2578 73.0438C55.5903 88.6643 47.0713 102.85 46.9628 119Z" fill="#9198E5" fill-opacity="0.5"/>
<path d="M46.9628 119C20.7197 106.336 2.37333 80.6797 0.0570531 53.4058C-1.27191 37.7576 20.9051 26.93 36.3818 33.3989C51.8586 39.8677 58.9253 57.4233 57.2578 73.0438C55.5903 88.6643 47.0713 102.85 46.9628 119Z" fill="#C27A9B" fill-opacity="0.5"/>
<path d="M89.7442 27.1243L89.7435 27.1236L89.7533 27.1495L89.7542 27.1504C89.7506 27.1418 89.7477 27.1329 89.7442 27.1243Z" fill="black"/>
<path d="M104.328 22.6223C99.3848 10.164 83.8925 7.96211 72.4818 14.3816C70.6165 15.3699 68.821 16.4665 67.1059 17.6649C63.0325 10.1899 56.7409 2.90883 47.9628 0.304849C38.6634 -1.28617 29.0741 3.5758 22.7891 9.64779C17.2777 15.2357 14.67 22.5862 11.8207 29.5343C8.13486 38.4415 9.02247 48.1219 11.4827 57.1962C14.2215 68.4383 21.038 78.3035 28.429 87.4152C37.0366 98.2255 46.7009 108.265 56.122 118.465C47.9788 105.803 39.2193 93.4611 31.904 80.3612C27.1515 71.9653 24.1374 65.644 22.4266 54.9297C21.9253 51.6821 21.6685 48.4064 21.6582 45.126C21.7471 41.3432 21.9625 41.3689 22.0285 40.7269C23.5033 33.7881 29.5013 22.943 32.0616 19.9308C32.805 19.1408 33.622 18.4127 34.5032 17.7546C35.0362 17.3976 35.5974 17.0777 36.182 16.7979C38.2931 15.8711 37.5207 15.88 42.1653 14.6928L42.167 14.6926C42.5138 14.6788 42.8348 14.678 43.0945 14.6823C43.2085 14.7438 43.3233 14.8036 43.4347 14.8689C47.804 18.6667 46.5104 17.6697 48.5612 20.0523C48.7351 20.2791 48.9088 20.5059 49.0824 20.7329C50.3034 22.379 51.3896 24.1071 52.332 25.9028C53.2094 27.1095 55.8867 38.2046 66.8228 35.817C68.6793 35.2414 70.388 34.3197 71.8433 33.1091C72.794 32.44 74.4354 31.2716 75.3965 30.5674C76.6415 29.7172 79.2326 27.9665 80.2013 27.4946C81.0091 27.031 81.8462 26.6127 82.7084 26.242C83.7166 25.8737 84.7559 25.5827 85.8158 25.372C86.0193 25.3609 86.2215 25.3334 86.4255 25.3362C86.508 25.3369 86.5901 25.3504 86.6727 25.353C87.0659 25.4428 87.617 25.5721 88.1671 25.7297C88.2716 25.7844 88.3764 25.8379 88.4782 25.897C88.7289 26.1134 89.0332 26.3873 89.3271 26.6813C89.5807 27.0319 89.8106 27.3967 90.0156 27.7736C90.7604 29.6479 91.3745 31.5644 91.8541 33.5113C93.6401 40.2005 93.2735 45.0175 92.0141 50.6754C87.0308 72.1169 73.7002 88.3474 59.9341 108.454C58.386 110.595 56.8065 112.717 55.1957 114.819C60.6534 110.062 65.8512 105.056 70.8697 99.9036C81.5978 88.9511 92.5898 77.905 99.42 64.3847C102.901 57.7168 105.873 50.6907 106.728 43.2801C107.454 36.3151 106.638 29.2863 104.328 22.6223Z" fill="black"/>
</svg>
