<svg width="13" height="13" viewBox="0 0 13 13" fill="none" xmlns="http://www.w3.org/2000/svg">
<path d="M10.0162 1.60638C8.97582 0.826069 7.71037 0.404266 6.40985 0.404266C5.10933 0.404266 3.84388 0.826069 2.80347 1.60638C2.09123 2.14741 1.50476 2.83644 1.08447 3.62596C0.551932 4.64264 0.321575 5.79052 0.420624 6.93394C0.519672 8.07737 0.943967 9.16853 1.6434 10.0785C2.34284 10.9884 3.28817 11.6792 4.36765 12.069C5.44712 12.4588 6.61563 12.5315 7.73508 12.2783C8.85452 12.0252 9.87812 11.4569 10.6849 10.6406C11.4916 9.82428 12.0478 8.79406 12.2877 7.67171C12.5276 6.54936 12.4412 5.38178 12.0387 4.30698C11.6362 3.23217 10.9344 2.29505 10.0163 1.60638H10.0162ZM6.40985 10.0213C5.45424 10.0185 4.53858 9.63762 3.86285 8.9619C3.18713 8.28618 2.80627 7.37051 2.80347 6.4149C2.80812 5.68552 3.02996 4.97407 3.44064 4.37128C3.79288 3.86114 4.27076 3.45052 4.82812 3.17912C5.38549 2.90773 6.00348 2.78473 6.62228 2.82204C7.24109 2.85935 7.83979 3.05571 8.3605 3.39211C8.88122 3.7285 9.30634 4.19358 9.59473 4.74234C9.88312 5.2911 10.025 5.905 10.0067 6.52466C9.98846 7.14432 9.8106 7.74877 9.49036 8.27957C9.17011 8.81038 8.71833 9.24958 8.17868 9.55469C7.63903 9.8598 7.02978 10.0205 6.40985 10.0213V10.0213Z" fill="#3F3D56"/>
</svg>
