<svg width="169" height="169" viewBox="0 0 169 169" fill="none" xmlns="http://www.w3.org/2000/svg">
<path d="M95.229 0.951191C88.0452 0.0375507 80.7746 0.0375507 73.5907 0.951191C57.5863 3.05257 42.5206 9.70105 30.1812 20.1078C17.8419 30.5145 8.74699 44.2425 3.9756 59.6631C1.80555 66.6906 0.576669 73.9749 0.321075 81.3254C0.285075 82.3472 0.260986 83.3811 0.260986 84.4149C0.283288 106.726 9.15611 128.116 24.9323 143.893C40.7084 159.669 62.0991 168.542 84.4099 168.564C86.2011 168.564 87.9922 168.504 89.7594 168.396C93.9075 168.135 98.0304 167.565 102.093 166.689C121.495 162.516 138.798 151.622 150.947 135.93C163.096 120.237 169.308 100.756 168.487 80.928C167.666 61.0996 159.864 42.1992 146.459 27.5652C133.054 12.9311 114.909 3.5048 95.2291 0.951191H95.229ZM110.748 161.808H110.736C103.959 164.12 96.9055 165.523 89.7593 165.979C87.9921 166.099 86.201 166.16 84.4099 166.16C62.738 166.133 41.9613 157.512 26.6369 142.188C11.3126 126.863 2.69168 106.087 2.66516 84.4149C2.66516 83.3811 2.68922 82.3472 2.72525 81.3254C3.55167 60.205 12.5159 40.2229 27.7414 25.5621C42.9669 10.9013 63.2733 2.69825 84.4099 2.67022C103.776 2.67129 122.513 9.54774 137.283 22.0744C152.052 34.6011 161.895 51.9644 165.057 71.0709C168.22 90.1773 164.496 109.786 154.55 126.403C144.604 143.021 129.082 155.567 110.748 161.808H110.748Z" fill="#3F3D56"/>
</svg>
