<svg width="1051" height="741" viewBox="0 0 1051 741" fill="none" xmlns="http://www.w3.org/2000/svg">
<g id="Frame" clip-path="url(#clip0_1_131)">
<g id="Group">
<path id="Vector" d="M809.878 405.54C809.989 497.209 774.556 585.352 711.028 651.44C707.198 655.45 703.265 659.363 699.228 663.18C693.078 669.03 686.721 674.653 680.158 680.05C618.76 730.634 542.112 759.059 462.578 760.74C459.928 760.8 457.268 760.83 454.598 760.83C391.168 760.83 311.388 726.95 238.988 680.05C232.998 676.17 227.061 672.2 221.178 668.14C218.428 666.26 215.691 664.353 212.968 662.42C185.044 642.702 158.539 621.049 133.648 597.62C117.351 582.325 102.068 565.983 87.898 548.7C32.268 480.079 19.998 418.25 99.308 405.54C108.698 404.04 117.811 402.436 126.648 400.73C139.448 398.27 151.698 395.613 163.398 392.76C179.158 388.93 193.965 384.776 207.818 380.3C212.478 378.8 217.031 377.27 221.478 375.71C287.218 352.62 331.218 322.51 361.168 289.84C366.248 284.31 370.931 278.713 375.218 273.05C381.777 264.429 387.734 255.368 393.048 245.93C400.383 232.816 406.543 219.079 411.458 204.88L411.728 204.1C435.558 135.36 428.308 71.5996 454.598 50.2596C566.978 -40.9704 706.888 88.9496 772.558 242.16C775.868 249.88 778.981 257.646 781.898 265.46C783.208 268.95 784.471 272.446 785.688 275.95C788.888 285.079 791.791 294.233 794.398 303.41C795.398 306.91 796.351 310.406 797.258 313.9C798.228 317.67 799.158 321.43 800.018 325.19C806.408 352.72 809.878 379.87 809.878 405.54Z" fill="#D6F1F0"/>
<path id="Vector_2" d="M462.578 760.74C459.928 760.8 457.268 760.83 454.598 760.83C391.168 760.83 311.388 726.95 238.988 680.05C232.998 676.17 227.061 672.2 221.178 668.14L226.338 636.74L382.548 616L460.948 675.95L462.578 760.74Z" fill="#2F2E41"/>
<path id="Vector_3" d="M470.098 200.05H447.838C447.149 200.05 446.487 200.324 446 200.811C445.512 201.299 445.238 201.96 445.238 202.649V224.919C445.238 225.26 445.306 225.598 445.437 225.913C445.568 226.227 445.759 226.513 446.001 226.754C446.242 226.994 446.529 227.185 446.844 227.315C447.159 227.444 447.497 227.511 447.838 227.51H470.098C470.786 227.51 471.446 227.237 471.933 226.752C472.421 226.266 472.696 225.607 472.698 224.919V202.649C472.696 201.961 472.421 201.3 471.934 200.813C471.447 200.326 470.787 200.052 470.098 200.05Z" fill="white"/>
<path id="Vector_4" d="M470.098 238H447.838C447.149 238 446.487 238.274 446 238.761C445.512 239.249 445.238 239.91 445.238 240.6V262.87C445.238 263.21 445.306 263.548 445.437 263.863C445.568 264.177 445.759 264.463 446.001 264.704C446.242 264.944 446.529 265.135 446.844 265.265C447.159 265.394 447.497 265.461 447.838 265.46H470.098C470.786 265.46 471.446 265.187 471.933 264.702C472.421 264.216 472.696 263.557 472.698 262.87V240.6C472.696 239.911 472.422 239.25 471.934 238.763C471.447 238.276 470.787 238.002 470.098 238Z" fill="#E6E6E6"/>
<path id="Vector_5" d="M470.098 275.95H447.838C447.149 275.95 446.487 276.224 446 276.711C445.512 277.199 445.238 277.86 445.238 278.55V300.81C445.237 301.151 445.304 301.49 445.435 301.805C445.565 302.121 445.757 302.408 445.998 302.65C446.24 302.891 446.526 303.083 446.842 303.213C447.158 303.343 447.496 303.41 447.838 303.409H470.098C470.787 303.409 471.449 303.135 471.936 302.648C472.424 302.16 472.698 301.499 472.698 300.81V278.55C472.696 277.861 472.422 277.2 471.934 276.713C471.447 276.226 470.787 275.952 470.098 275.95Z" fill="#E6E6E6"/>
<path id="Vector_6" d="M472.658 316.04C472.547 315.441 472.231 314.899 471.763 314.509C471.296 314.118 470.707 313.903 470.098 313.899H447.838C447.149 313.9 446.487 314.174 446 314.661C445.512 315.149 445.238 315.81 445.238 316.5V338.76C445.237 339.101 445.304 339.44 445.435 339.755C445.565 340.071 445.756 340.358 445.998 340.6C446.24 340.841 446.526 341.033 446.842 341.163C447.158 341.293 447.496 341.36 447.838 341.36H470.098C470.787 341.359 471.449 341.085 471.936 340.598C472.424 340.11 472.698 339.449 472.698 338.76V316.5C472.7 316.345 472.687 316.191 472.658 316.04Z" fill="#E6E6E6"/>
<path id="Vector_7" d="M471.108 352.05C470.788 351.917 470.445 351.849 470.098 351.85H447.838C447.496 351.849 447.158 351.916 446.842 352.046C446.527 352.177 446.24 352.368 445.998 352.61C445.757 352.851 445.565 353.138 445.435 353.454C445.304 353.77 445.237 354.108 445.238 354.45V376.71C445.237 377.051 445.303 377.39 445.433 377.706C445.563 378.022 445.754 378.31 445.996 378.551C446.238 378.793 446.525 378.985 446.841 379.115C447.157 379.245 447.496 379.311 447.838 379.31H470.098C470.787 379.309 471.449 379.035 471.936 378.548C472.424 378.06 472.698 377.399 472.698 376.71V354.45C472.697 353.938 472.546 353.438 472.263 353.011C471.98 352.585 471.579 352.25 471.108 352.05Z" fill="#E6E6E6"/>
<path id="Vector_8" d="M516.858 200.05H494.598C493.909 200.05 493.248 200.324 492.76 200.811C492.273 201.299 491.998 201.96 491.998 202.649V224.919C491.999 225.26 492.066 225.598 492.197 225.913C492.328 226.227 492.52 226.513 492.761 226.754C493.002 226.994 493.289 227.185 493.604 227.315C493.919 227.444 494.257 227.511 494.598 227.51H516.858C517.546 227.51 518.206 227.237 518.693 226.752C519.181 226.266 519.456 225.607 519.458 224.919V202.649C519.456 201.961 519.182 201.3 518.694 200.813C518.207 200.326 517.547 200.052 516.858 200.05Z" fill="#E6E6E6"/>
<path id="Vector_9" d="M516.858 238H494.598C493.909 238 493.247 238.274 492.76 238.761C492.272 239.249 491.998 239.91 491.998 240.6V262.87C491.999 263.21 492.066 263.548 492.197 263.863C492.328 264.177 492.52 264.463 492.761 264.704C493.002 264.944 493.289 265.135 493.604 265.265C493.919 265.394 494.257 265.461 494.598 265.46H516.858C517.546 265.46 518.206 265.187 518.693 264.702C519.181 264.216 519.456 263.557 519.458 262.87V240.6C519.456 239.911 519.182 239.25 518.694 238.763C518.207 238.276 517.547 238.002 516.858 238Z" fill="#E66465"/>
<path id="Vector_10" d="M516.858 275.95H494.598C493.909 275.95 493.247 276.224 492.76 276.711C492.272 277.199 491.998 277.86 491.998 278.55V300.81C491.997 301.151 492.064 301.49 492.195 301.805C492.325 302.121 492.517 302.408 492.758 302.65C493 302.891 493.287 303.083 493.602 303.213C493.918 303.343 494.256 303.41 494.598 303.409H516.858C517.547 303.409 518.209 303.135 518.696 302.648C519.184 302.16 519.458 301.499 519.458 300.81V278.55C519.456 277.861 519.182 277.2 518.694 276.713C518.207 276.226 517.547 275.952 516.858 275.95Z" fill="#E66465"/>
<path id="Vector_11" d="M516.858 313.899H494.598C494.053 313.9 493.522 314.072 493.08 314.392C492.639 314.711 492.309 315.162 492.138 315.679C492.046 315.943 491.998 316.22 491.998 316.5V338.76C491.997 339.101 492.064 339.44 492.195 339.755C492.325 340.071 492.517 340.358 492.758 340.6C493 340.841 493.286 341.033 493.602 341.163C493.918 341.293 494.256 341.36 494.598 341.36H516.858C517.548 341.359 518.209 341.085 518.696 340.598C519.184 340.11 519.458 339.449 519.458 338.76V316.5C519.456 315.811 519.181 315.15 518.694 314.663C518.207 314.176 517.547 313.902 516.858 313.899Z" fill="#E66465"/>
<path id="Vector_12" d="M516.858 351.85H494.598C494.256 351.849 493.918 351.916 493.602 352.046C493.287 352.177 493 352.368 492.758 352.61C492.517 352.851 492.325 353.138 492.195 353.454C492.064 353.77 491.997 354.108 491.998 354.45V376.71C491.997 377.051 492.064 377.39 492.195 377.705C492.325 378.021 492.517 378.308 492.758 378.55C493 378.791 493.287 378.983 493.602 379.113C493.918 379.244 494.256 379.31 494.598 379.31H516.858C517.548 379.309 518.209 379.035 518.696 378.548C519.184 378.06 519.458 377.399 519.458 376.71V354.45C519.458 353.76 519.184 353.099 518.696 352.611C518.209 352.124 517.548 351.85 516.858 351.85Z" fill="#E6E6E6"/>
<path id="Vector_13" d="M563.618 200.05H541.358C540.669 200.05 540.008 200.324 539.52 200.811C539.033 201.299 538.758 201.96 538.758 202.649V224.919C538.759 225.26 538.826 225.598 538.957 225.913C539.088 226.227 539.28 226.513 539.521 226.754C539.762 226.994 540.049 227.185 540.364 227.315C540.679 227.444 541.017 227.511 541.358 227.51H563.618C564.306 227.51 564.966 227.237 565.453 226.752C565.941 226.266 566.216 225.607 566.218 224.919V202.649C566.216 201.961 565.941 201.3 565.454 200.813C564.967 200.326 564.307 200.052 563.618 200.05Z" fill="#E66465"/>
<path id="Vector_14" d="M563.618 238H541.358C540.669 238 540.007 238.274 539.52 238.761C539.032 239.249 538.758 239.91 538.758 240.6V262.87C538.759 263.21 538.826 263.548 538.957 263.863C539.088 264.177 539.28 264.463 539.521 264.704C539.762 264.944 540.049 265.135 540.364 265.265C540.679 265.394 541.017 265.461 541.358 265.46H563.618C564.306 265.46 564.966 265.187 565.453 264.702C565.941 264.216 566.216 263.557 566.218 262.87V240.6C566.216 239.911 565.942 239.25 565.454 238.763C564.967 238.276 564.307 238.002 563.618 238Z" fill="#E66465"/>
<path id="Vector_15" d="M563.618 275.95H541.358C540.669 275.95 540.007 276.224 539.52 276.711C539.032 277.199 538.758 277.86 538.758 278.55V300.81C538.757 301.151 538.824 301.49 538.955 301.805C539.085 302.121 539.277 302.408 539.518 302.65C539.76 302.891 540.047 303.083 540.362 303.213C540.678 303.343 541.016 303.41 541.358 303.409H563.618C564.308 303.409 564.969 303.135 565.456 302.648C565.944 302.16 566.218 301.499 566.218 300.81V278.55C566.216 277.861 565.942 277.2 565.454 276.713C564.967 276.226 564.307 275.952 563.618 275.95Z" fill="#E6E6E6"/>
<path id="Vector_16" d="M563.618 313.899H541.358C540.669 313.9 540.008 314.174 539.52 314.661C539.033 315.149 538.758 315.81 538.758 316.5V338.76C538.757 339.101 538.824 339.44 538.955 339.755C539.085 340.071 539.277 340.358 539.518 340.6C539.76 340.841 540.047 341.033 540.362 341.163C540.678 341.293 541.016 341.36 541.358 341.36H563.618C564.308 341.359 564.969 341.085 565.456 340.598C565.944 340.11 566.218 339.449 566.218 338.76V316.5C566.216 315.811 565.942 315.15 565.454 314.663C564.967 314.176 564.307 313.902 563.618 313.899Z" fill="#E66465"/>
<path id="Vector_17" d="M563.618 351.85H541.358C541.016 351.849 540.678 351.916 540.362 352.046C540.047 352.177 539.76 352.368 539.518 352.61C539.277 352.851 539.085 353.138 538.955 353.454C538.824 353.77 538.757 354.108 538.758 354.45V376.71C538.757 377.051 538.824 377.39 538.955 377.705C539.085 378.021 539.277 378.308 539.518 378.55C539.76 378.791 540.047 378.983 540.362 379.113C540.678 379.244 541.016 379.31 541.358 379.31H563.618C564.308 379.309 564.969 379.035 565.456 378.548C565.944 378.06 566.218 377.399 566.218 376.71V354.45C566.218 353.76 565.944 353.099 565.456 352.611C564.969 352.124 564.308 351.85 563.618 351.85Z" fill="#E66465"/>
<path id="Vector_18" d="M610.378 200.05H588.118C587.429 200.05 586.767 200.324 586.28 200.811C585.792 201.299 585.518 201.96 585.518 202.649V224.919C585.518 225.26 585.586 225.598 585.717 225.913C585.848 226.227 586.039 226.513 586.281 226.754C586.522 226.994 586.809 227.185 587.124 227.315C587.439 227.444 587.777 227.511 588.118 227.51H610.378C611.066 227.51 611.726 227.237 612.213 226.752C612.701 226.266 612.976 225.607 612.978 224.919V202.649C612.976 201.961 612.701 201.3 612.214 200.813C611.727 200.326 611.067 200.052 610.378 200.05Z" fill="#E66465"/>
<path id="Vector_19" d="M610.378 238H588.118C587.429 238 586.767 238.274 586.28 238.761C585.792 239.249 585.518 239.91 585.518 240.6V262.87C585.518 263.21 585.586 263.548 585.717 263.863C585.848 264.177 586.039 264.463 586.281 264.704C586.522 264.944 586.809 265.135 587.124 265.265C587.439 265.394 587.777 265.461 588.118 265.46H610.378C611.066 265.46 611.726 265.187 612.213 264.702C612.701 264.216 612.976 263.557 612.978 262.87V240.6C612.976 239.911 612.701 239.25 612.214 238.763C611.727 238.276 611.067 238.002 610.378 238Z" fill="white"/>
<path id="Vector_20" d="M610.378 275.95H588.118C587.429 275.95 586.767 276.224 586.28 276.711C585.792 277.199 585.518 277.86 585.518 278.55V300.81C585.517 301.151 585.584 301.49 585.715 301.805C585.845 302.121 586.036 302.408 586.278 302.65C586.52 302.891 586.806 303.083 587.122 303.213C587.438 303.343 587.776 303.41 588.118 303.409H610.378C611.067 303.409 611.729 303.135 612.216 302.648C612.704 302.16 612.978 301.499 612.978 300.81V278.55C612.976 277.861 612.701 277.2 612.214 276.713C611.727 276.226 611.067 275.952 610.378 275.95Z" fill="white"/>
<path id="Vector_21" d="M610.378 313.899H588.118C587.429 313.9 586.767 314.174 586.28 314.661C585.792 315.149 585.518 315.81 585.518 316.5V338.76C585.517 339.101 585.584 339.44 585.715 339.755C585.845 340.071 586.036 340.358 586.278 340.6C586.52 340.841 586.806 341.033 587.122 341.163C587.438 341.293 587.776 341.36 588.118 341.36H610.378C611.067 341.359 611.729 341.085 612.216 340.598C612.704 340.11 612.978 339.449 612.978 338.76V316.5C612.976 315.811 612.701 315.15 612.214 314.663C611.727 314.176 611.067 313.902 610.378 313.899Z" fill="#E6E6E6"/>
<path id="Vector_22" d="M610.378 351.85H588.118C587.776 351.849 587.438 351.916 587.122 352.046C586.806 352.177 586.52 352.368 586.278 352.61C586.036 352.851 585.845 353.138 585.715 353.454C585.584 353.77 585.517 354.108 585.518 354.45V376.71C585.517 377.051 585.584 377.39 585.715 377.705C585.845 378.021 586.036 378.308 586.278 378.55C586.52 378.791 586.806 378.983 587.122 379.113C587.438 379.244 587.776 379.31 588.118 379.31H610.378C611.067 379.309 611.729 379.035 612.216 378.548C612.704 378.06 612.978 377.399 612.978 376.71V354.45C612.978 353.76 612.704 353.099 612.216 352.611C611.729 352.124 611.067 351.85 610.378 351.85Z" fill="#E66465"/>
<path id="Vector_23" d="M657.138 200.05H634.868C634.18 200.052 633.521 200.327 633.036 200.814C632.55 201.302 632.278 201.962 632.278 202.649V224.919C632.278 225.606 632.551 226.265 633.037 226.751C633.522 227.236 634.181 227.509 634.868 227.51H657.138C657.826 227.51 658.486 227.237 658.973 226.752C659.461 226.266 659.736 225.607 659.738 224.919V202.649C659.736 201.961 659.461 201.3 658.974 200.813C658.487 200.326 657.827 200.052 657.138 200.05Z" fill="white"/>
<path id="Vector_24" d="M657.138 238H634.868C634.18 238.002 633.521 238.277 633.036 238.764C632.55 239.252 632.278 239.912 632.278 240.6V262.87C632.278 263.556 632.551 264.215 633.037 264.701C633.522 265.187 634.181 265.459 634.868 265.46H657.138C657.826 265.46 658.486 265.187 658.973 264.702C659.461 264.216 659.736 263.557 659.738 262.87V240.6C659.736 239.911 659.461 239.25 658.974 238.763C658.487 238.276 657.827 238.002 657.138 238Z" fill="white"/>
<path id="Vector_25" d="M657.138 275.95H634.868C634.18 275.952 633.521 276.227 633.036 276.714C632.55 277.202 632.278 277.862 632.278 278.55V300.81C632.277 301.15 632.343 301.488 632.473 301.803C632.603 302.119 632.793 302.405 633.034 302.647C633.274 302.888 633.56 303.08 633.875 303.211C634.19 303.342 634.527 303.409 634.868 303.409H657.138C657.827 303.409 658.489 303.135 658.976 302.648C659.464 302.16 659.738 301.499 659.738 300.81V278.55C659.736 277.861 659.461 277.2 658.974 276.713C658.487 276.226 657.827 275.952 657.138 275.95Z" fill="white"/>
<path id="Vector_26" d="M657.138 313.899H634.868C634.18 313.902 633.521 314.177 633.036 314.664C632.55 315.152 632.278 315.812 632.278 316.5V338.76C632.277 339.1 632.343 339.438 632.473 339.753C632.603 340.069 632.793 340.355 633.034 340.597C633.274 340.838 633.56 341.03 633.875 341.161C634.19 341.292 634.527 341.359 634.868 341.36H657.138C657.827 341.359 658.489 341.085 658.976 340.598C659.464 340.11 659.738 339.449 659.738 338.76V316.5C659.736 315.811 659.461 315.15 658.974 314.663C658.487 314.176 657.827 313.902 657.138 313.899Z" fill="#E66465"/>
<path id="Vector_27" d="M657.138 351.85H634.868C634.527 351.85 634.19 351.917 633.875 352.048C633.56 352.179 633.274 352.371 633.034 352.612C632.793 352.854 632.603 353.141 632.473 353.456C632.343 353.771 632.277 354.109 632.278 354.45V376.71C632.277 377.05 632.343 377.388 632.473 377.703C632.603 378.019 632.793 378.305 633.034 378.547C633.274 378.788 633.56 378.98 633.875 379.111C634.19 379.242 634.527 379.309 634.868 379.31H657.138C657.827 379.309 658.489 379.035 658.976 378.548C659.464 378.06 659.738 377.399 659.738 376.71V354.45C659.738 353.76 659.464 353.099 658.976 352.611C658.489 352.124 657.827 351.85 657.138 351.85Z" fill="#E6E6E6"/>
<path id="Vector_28" d="M703.898 200.05H681.628C680.94 200.052 680.281 200.327 679.796 200.814C679.31 201.302 679.038 201.962 679.038 202.649V224.919C679.038 225.606 679.311 226.265 679.797 226.751C680.282 227.236 680.941 227.509 681.628 227.51H703.898C704.586 227.51 705.246 227.237 705.733 226.752C706.221 226.266 706.496 225.607 706.498 224.919V202.649C706.496 201.961 706.221 201.3 705.734 200.813C705.247 200.326 704.587 200.052 703.898 200.05Z" fill="white"/>
<path id="Vector_29" d="M703.898 238H681.628C680.94 238.002 680.281 238.277 679.796 238.764C679.31 239.252 679.038 239.912 679.038 240.6V262.87C679.038 263.556 679.311 264.215 679.797 264.701C680.282 265.187 680.941 265.459 681.628 265.46H703.898C704.586 265.46 705.246 265.187 705.733 264.702C706.221 264.216 706.496 263.557 706.498 262.87V240.6C706.496 239.911 706.221 239.25 705.734 238.763C705.247 238.276 704.587 238.002 703.898 238Z" fill="white"/>
<path id="Vector_30" d="M703.898 275.95H681.628C680.94 275.952 680.281 276.227 679.796 276.714C679.31 277.202 679.038 277.862 679.038 278.55V300.81C679.037 301.15 679.103 301.488 679.233 301.803C679.363 302.119 679.553 302.405 679.794 302.647C680.034 302.888 680.32 303.08 680.635 303.211C680.95 303.342 681.287 303.409 681.628 303.409H703.898C704.587 303.409 705.249 303.135 705.736 302.648C706.224 302.16 706.498 301.499 706.498 300.81V278.55C706.496 277.861 706.221 277.2 705.734 276.713C705.247 276.226 704.587 275.952 703.898 275.95Z" fill="#E66465"/>
<path id="Vector_31" d="M703.898 313.899H681.628C680.94 313.902 680.281 314.177 679.796 314.664C679.31 315.152 679.038 315.812 679.038 316.5V338.76C679.037 339.1 679.103 339.438 679.233 339.753C679.363 340.069 679.553 340.355 679.794 340.597C680.034 340.838 680.32 341.03 680.635 341.161C680.95 341.292 681.287 341.359 681.628 341.36H703.898C704.587 341.359 705.249 341.085 705.736 340.598C706.224 340.11 706.498 339.449 706.498 338.76V316.5C706.496 315.811 706.221 315.15 705.734 314.663C705.247 314.176 704.587 313.902 703.898 313.899Z" fill="#E6E6E6"/>
<path id="Vector_32" d="M703.898 351.85H681.628C681.287 351.85 680.95 351.917 680.635 352.048C680.32 352.179 680.034 352.371 679.794 352.612C679.553 352.854 679.363 353.141 679.233 353.456C679.103 353.771 679.037 354.109 679.038 354.45V376.71C679.037 377.05 679.103 377.388 679.233 377.703C679.363 378.019 679.553 378.305 679.794 378.547C680.034 378.788 680.32 378.98 680.635 379.111C680.95 379.242 681.287 379.309 681.628 379.31H703.898C704.587 379.309 705.249 379.035 705.736 378.548C706.224 378.06 706.498 377.399 706.498 376.71V354.45C706.498 353.76 706.224 353.099 705.736 352.611C705.249 352.124 704.587 351.85 703.898 351.85Z" fill="white"/>
<path id="Vector_33" d="M750.658 200.05H728.388C727.7 200.052 727.041 200.327 726.556 200.814C726.07 201.302 725.798 201.962 725.798 202.649V224.919C725.798 225.606 726.071 226.265 726.557 226.751C727.042 227.236 727.701 227.509 728.388 227.51H750.658C751.346 227.51 752.006 227.237 752.493 226.752C752.981 226.266 753.256 225.607 753.258 224.919V202.649C753.256 201.961 752.981 201.3 752.494 200.813C752.007 200.326 751.347 200.052 750.658 200.05Z" fill="#E66465"/>
<path id="Vector_34" d="M750.658 238H728.388C727.7 238.002 727.041 238.277 726.556 238.764C726.07 239.252 725.798 239.912 725.798 240.6V262.87C725.798 263.556 726.071 264.215 726.557 264.701C727.042 265.187 727.701 265.459 728.388 265.46H750.658C751.346 265.46 752.006 265.187 752.493 264.702C752.981 264.216 753.256 263.557 753.258 262.87V240.6C753.256 239.911 752.981 239.25 752.494 238.763C752.007 238.276 751.347 238.002 750.658 238Z" fill="#E66465"/>
<path id="Vector_35" d="M750.658 275.95H728.388C727.7 275.952 727.041 276.227 726.556 276.714C726.07 277.202 725.798 277.862 725.798 278.55V300.81C725.797 301.15 725.863 301.488 725.993 301.803C726.123 302.119 726.313 302.405 726.554 302.647C726.794 302.888 727.08 303.08 727.395 303.211C727.71 303.342 728.047 303.409 728.388 303.409H750.658C751.347 303.409 752.009 303.135 752.496 302.648C752.984 302.16 753.258 301.499 753.258 300.81V278.55C753.256 277.861 752.981 277.2 752.494 276.713C752.007 276.226 751.347 275.952 750.658 275.95Z" fill="#E6E6E6"/>
<path id="Vector_36" d="M750.658 313.899H728.388C727.7 313.902 727.041 314.177 726.556 314.664C726.07 315.152 725.798 315.812 725.798 316.5V338.76C725.797 339.1 725.863 339.438 725.993 339.753C726.123 340.069 726.313 340.355 726.554 340.597C726.794 340.838 727.08 341.03 727.395 341.161C727.71 341.292 728.047 341.359 728.388 341.36H750.658C751.347 341.359 752.009 341.085 752.496 340.598C752.984 340.11 753.258 339.449 753.258 338.76V316.5C753.256 315.811 752.981 315.15 752.494 314.663C752.007 314.176 751.347 313.902 750.658 313.899Z" fill="white"/>
<path id="Vector_37" d="M750.658 351.85H728.388C728.047 351.85 727.71 351.917 727.395 352.048C727.08 352.179 726.794 352.371 726.554 352.612C726.313 352.854 726.123 353.141 725.993 353.456C725.863 353.771 725.797 354.109 725.798 354.45V376.71C725.797 377.05 725.863 377.388 725.993 377.703C726.123 378.019 726.313 378.305 726.554 378.547C726.794 378.788 727.08 378.98 727.395 379.111C727.71 379.242 728.047 379.309 728.388 379.31H750.658C751.347 379.309 752.009 379.035 752.496 378.548C752.984 378.06 753.258 377.399 753.258 376.71V354.45C753.258 353.76 752.984 353.099 752.496 352.611C752.009 352.124 751.347 351.85 750.658 351.85Z" fill="#E66465"/>
<path id="Vector_38" d="M797.418 200.05H775.148C774.46 200.052 773.801 200.327 773.316 200.814C772.83 201.302 772.558 201.962 772.558 202.649V224.919C772.558 225.606 772.831 226.265 773.317 226.751C773.802 227.236 774.461 227.509 775.148 227.51H797.418C798.106 227.51 798.766 227.237 799.253 226.752C799.741 226.266 800.016 225.607 800.018 224.919V202.649C800.016 201.961 799.741 201.3 799.254 200.813C798.767 200.326 798.107 200.052 797.418 200.05Z" fill="#E66465"/>
<path id="Vector_39" d="M797.418 238H775.148C774.46 238.002 773.801 238.277 773.316 238.764C772.83 239.252 772.558 239.912 772.558 240.6V262.87C772.558 263.556 772.831 264.215 773.317 264.701C773.802 265.187 774.461 265.459 775.148 265.46H797.418C798.106 265.46 798.766 265.187 799.253 264.702C799.741 264.216 800.016 263.557 800.018 262.87V240.6C800.016 239.911 799.741 239.25 799.254 238.763C798.767 238.276 798.107 238.002 797.418 238Z" fill="#E66465"/>
<path id="Vector_40" d="M797.418 275.95H775.148C774.46 275.952 773.801 276.227 773.316 276.714C772.83 277.202 772.558 277.862 772.558 278.55V300.81C772.557 301.15 772.623 301.488 772.753 301.803C772.883 302.119 773.073 302.405 773.314 302.647C773.554 302.888 773.84 303.08 774.155 303.211C774.47 303.342 774.807 303.409 775.148 303.409H797.418C798.107 303.409 798.769 303.135 799.256 302.648C799.744 302.16 800.018 301.499 800.018 300.81V278.55C800.016 277.861 799.741 277.2 799.254 276.713C798.767 276.226 798.107 275.952 797.418 275.95Z" fill="#E6E6E6"/>
<path id="Vector_41" d="M797.418 313.899H775.148C774.46 313.902 773.801 314.177 773.316 314.664C772.83 315.152 772.558 315.812 772.558 316.5V338.76C772.557 339.1 772.623 339.438 772.753 339.753C772.883 340.069 773.073 340.355 773.314 340.597C773.554 340.838 773.84 341.03 774.155 341.161C774.47 341.292 774.807 341.359 775.148 341.36H797.418C798.107 341.359 798.769 341.085 799.256 340.598C799.744 340.11 800.018 339.449 800.018 338.76V316.5C800.016 315.811 799.741 315.15 799.254 314.663C798.767 314.176 798.107 313.902 797.418 313.899Z" fill="#E66465"/>
<path id="Vector_42" d="M797.418 351.85H775.148C774.807 351.85 774.47 351.917 774.155 352.048C773.84 352.179 773.554 352.371 773.314 352.612C773.073 352.854 772.883 353.141 772.753 353.456C772.623 353.771 772.557 354.109 772.558 354.45V376.71C772.557 377.05 772.623 377.388 772.753 377.703C772.883 378.019 773.073 378.305 773.314 378.547C773.554 378.788 773.84 378.98 774.155 379.111C774.47 379.242 774.807 379.309 775.148 379.31H797.418C798.107 379.309 798.769 379.035 799.256 378.548C799.744 378.06 800.018 377.399 800.018 376.71V354.45C800.018 353.76 799.744 353.099 799.256 352.611C798.769 352.124 798.107 351.85 797.418 351.85Z" fill="#E66465"/>
<path id="Vector_43" d="M844.178 200.05H821.908C821.22 200.052 820.561 200.327 820.076 200.814C819.59 201.302 819.318 201.962 819.318 202.649V224.919C819.318 225.606 819.591 226.265 820.077 226.751C820.562 227.236 821.221 227.509 821.908 227.51H844.178C844.866 227.51 845.526 227.237 846.013 226.752C846.501 226.266 846.776 225.607 846.778 224.919V202.649C846.776 201.961 846.501 201.3 846.014 200.813C845.527 200.326 844.867 200.052 844.178 200.05Z" fill="#E6E6E6"/>
<path id="Vector_44" d="M844.178 238H821.908C821.22 238.002 820.561 238.277 820.076 238.764C819.59 239.252 819.318 239.912 819.318 240.6V262.87C819.318 263.556 819.591 264.215 820.077 264.701C820.562 265.187 821.221 265.459 821.908 265.46H844.178C844.866 265.46 845.526 265.187 846.013 264.702C846.501 264.216 846.776 263.557 846.778 262.87V240.6C846.776 239.911 846.501 239.25 846.014 238.763C845.527 238.276 844.867 238.002 844.178 238Z" fill="#E66465"/>
<path id="Vector_45" d="M844.178 275.95H821.908C821.22 275.952 820.561 276.227 820.076 276.714C819.59 277.202 819.318 277.862 819.318 278.55V300.81C819.317 301.15 819.383 301.488 819.513 301.803C819.643 302.119 819.833 302.405 820.074 302.647C820.314 302.888 820.6 303.08 820.915 303.211C821.23 303.342 821.567 303.409 821.908 303.409H844.178C844.867 303.409 845.529 303.135 846.016 302.648C846.504 302.16 846.778 301.499 846.778 300.81V278.55C846.776 277.861 846.501 277.2 846.014 276.713C845.527 276.226 844.867 275.952 844.178 275.95Z" fill="#E66465"/>
<path id="Vector_46" d="M844.178 313.899H821.908C821.22 313.902 820.561 314.177 820.076 314.664C819.59 315.152 819.318 315.812 819.318 316.5V338.76C819.317 339.1 819.383 339.438 819.513 339.753C819.643 340.069 819.833 340.355 820.074 340.597C820.314 340.838 820.6 341.03 820.915 341.161C821.23 341.292 821.567 341.359 821.908 341.36H844.178C844.867 341.359 845.529 341.085 846.016 340.598C846.504 340.11 846.778 339.449 846.778 338.76V316.5C846.776 315.811 846.501 315.15 846.014 314.663C845.527 314.176 844.867 313.902 844.178 313.899Z" fill="#E66465"/>
<path id="Vector_47" d="M844.178 351.85H821.908C821.567 351.85 821.23 351.917 820.915 352.048C820.6 352.179 820.314 352.371 820.074 352.612C819.833 352.854 819.643 353.141 819.513 353.456C819.383 353.771 819.317 354.109 819.318 354.45V376.71C819.317 377.05 819.383 377.388 819.513 377.703C819.643 378.019 819.833 378.305 820.074 378.547C820.314 378.788 820.6 378.98 820.915 379.111C821.23 379.242 821.567 379.309 821.908 379.31H844.178C844.867 379.309 845.529 379.035 846.016 378.548C846.504 378.06 846.778 377.399 846.778 376.71V354.45C846.778 353.76 846.504 353.099 846.016 352.611C845.529 352.124 844.867 351.85 844.178 351.85Z" fill="#E6E6E6"/>
<path id="Vector_48" d="M890.938 200.05H868.668C867.98 200.052 867.321 200.327 866.836 200.814C866.35 201.302 866.078 201.962 866.078 202.649V224.919C866.078 225.606 866.351 226.265 866.837 226.751C867.322 227.236 867.981 227.509 868.668 227.51H890.938C891.626 227.51 892.286 227.237 892.773 226.752C893.261 226.266 893.536 225.607 893.538 224.919V202.649C893.536 201.961 893.261 201.3 892.774 200.813C892.287 200.326 891.627 200.052 890.938 200.05Z" fill="#E6E6E6"/>
<path id="Vector_49" d="M890.938 238H868.668C867.98 238.002 867.321 238.277 866.836 238.764C866.35 239.252 866.078 239.912 866.078 240.6V262.87C866.078 263.556 866.351 264.215 866.837 264.701C867.322 265.187 867.981 265.459 868.668 265.46H890.938C891.626 265.46 892.286 265.187 892.773 264.702C893.261 264.216 893.536 263.557 893.538 262.87V240.6C893.536 239.911 893.261 239.25 892.774 238.763C892.287 238.276 891.627 238.002 890.938 238Z" fill="#E6E6E6"/>
<path id="Vector_50" d="M890.938 275.95H868.668C867.98 275.952 867.321 276.227 866.836 276.714C866.35 277.202 866.078 277.862 866.078 278.55V300.81C866.077 301.15 866.143 301.488 866.273 301.803C866.403 302.119 866.593 302.405 866.834 302.647C867.074 302.888 867.36 303.08 867.675 303.211C867.99 303.342 868.327 303.409 868.668 303.409H890.938C891.627 303.409 892.289 303.135 892.776 302.648C893.264 302.16 893.538 301.499 893.538 300.81V278.55C893.536 277.861 893.261 277.2 892.774 276.713C892.287 276.226 891.627 275.952 890.938 275.95Z" fill="#E66465"/>
<path id="Vector_51" d="M890.938 313.899H868.668C867.98 313.902 867.321 314.177 866.836 314.664C866.35 315.152 866.078 315.812 866.078 316.5V338.76C866.077 339.1 866.143 339.438 866.273 339.753C866.403 340.069 866.593 340.355 866.834 340.597C867.074 340.838 867.36 341.03 867.675 341.161C867.99 341.292 868.327 341.359 868.668 341.36H890.938C891.627 341.359 892.289 341.085 892.776 340.598C893.264 340.11 893.538 339.449 893.538 338.76V316.5C893.536 315.811 893.261 315.15 892.774 314.663C892.287 314.176 891.627 313.902 890.938 313.899Z" fill="#E6E6E6"/>
<path id="Vector_52" d="M890.938 351.85H868.668C868.327 351.85 867.99 351.917 867.675 352.048C867.36 352.179 867.074 352.371 866.834 352.612C866.593 352.854 866.403 353.141 866.273 353.456C866.143 353.771 866.077 354.109 866.078 354.45V376.71C866.077 377.05 866.143 377.388 866.273 377.703C866.403 378.019 866.593 378.305 866.834 378.547C867.074 378.788 867.36 378.98 867.675 379.111C867.99 379.242 868.327 379.309 868.668 379.31H890.938C891.627 379.309 892.289 379.035 892.776 378.548C893.264 378.06 893.538 377.399 893.538 376.71V354.45C893.538 353.76 893.264 353.099 892.776 352.611C892.289 352.124 891.627 351.85 890.938 351.85Z" fill="#E6E6E6"/>
<path id="Vector_53" d="M379.095 680.051H378.475L379.005 679.981L379.095 680.051Z" fill="#2F2E41"/>
<path id="Vector_54" d="M502.548 365.11L502.328 366.27L499.858 379.31L482.788 469.51L481.778 474.82L479.658 486.05L476.758 501.37L470.328 535.32L468.488 545.05L467.798 548.7L467.558 549.98L465.648 560.05L465.068 563.09L460.408 597.62L456.338 627.71L469.958 641.329L461.838 649.449L456.508 679.98L456.518 680.05H238.988C230.188 674.35 221.515 668.473 212.968 662.419L214.758 649.02C214.758 649.02 220.918 625.09 218.328 622.23C215.748 619.37 210.088 614.26 210.088 614.26L217.218 597.62L218.208 595.31L216.548 560.88L216.508 560.05L215.958 548.699L215.888 547.239L215.778 545.05L213.668 501.369L213.628 500.649L212.988 487.409L212.388 474.82L212.128 469.509L209.558 416.379L207.818 380.3L206.298 348.89L212.408 346.82L277.758 324.609L304.828 289.419L361.168 289.839L388.748 290.05L434.768 332.729L445.238 337.729L445.318 337.769L452.828 341.359L471.868 350.449L491.998 360.07L502.328 365L502.548 365.11Z" fill="#97C7FF"/>
<path id="Vector_55" d="M312.109 577.551C307.98 579.15 303.551 579.825 299.134 579.528C294.716 579.23 290.417 577.968 286.54 575.829C282.663 573.691 279.303 570.728 276.694 567.15C274.086 563.572 272.294 559.466 271.445 555.121L164.886 540.003L201.929 498.101L297.44 518.881C304.834 517.938 312.318 519.74 318.473 523.946C324.628 528.151 329.026 534.469 330.834 541.701C332.642 548.932 331.734 556.576 328.283 563.184C324.832 569.791 319.077 574.903 312.109 577.551Z" fill="#FFB6B6"/>
<path id="Vector_56" d="M264.598 501.37C262.624 498.867 259.83 497.142 256.708 496.5L212.988 487.409L208.498 486.48C205.889 485.935 203.424 484.846 201.264 483.283C199.105 481.72 197.3 479.718 195.968 477.409C194.586 474.986 193.75 472.29 193.518 469.51C193.31 466.982 193.612 464.438 194.408 462.03L209.558 416.38L219.388 386.76C220.579 383.187 221.282 379.47 221.478 375.71C222.026 365.302 218.806 355.046 212.408 346.82C206.783 339.589 198.982 334.359 190.156 331.903C181.331 329.446 171.949 329.894 163.398 333.18C163.148 333.27 162.888 333.37 162.638 333.47C156.505 335.918 151.026 339.76 146.633 344.691C142.241 349.621 139.055 355.506 137.328 361.88L126.648 400.73L104.618 480.82C102.413 488.844 101.967 497.25 103.312 505.462C104.657 513.675 107.76 521.5 112.409 528.402C117.059 535.304 123.144 541.12 130.25 545.451C137.355 549.783 145.313 552.528 153.578 553.5L216.548 560.88L245.688 564.3C249.058 564.705 252.456 563.825 255.206 561.837C257.956 559.848 259.857 556.896 260.528 553.57C260.575 553.388 260.612 553.205 260.638 553.02L261.338 548.699L267.268 512.32L267.328 511.949C267.637 510.093 267.554 508.193 267.083 506.37C266.613 504.548 265.767 502.845 264.598 501.37Z" fill="#97C7FF"/>
<path id="Vector_57" d="M379.983 578.717C384.295 579.718 388.775 579.762 393.107 578.844C397.438 577.927 401.516 576.071 405.053 573.407C408.589 570.743 411.499 567.336 413.576 563.426C415.654 559.517 416.849 555.199 417.077 550.777L520.439 520.783L477.857 484.524L386.231 518.565C378.778 518.674 371.623 521.513 366.123 526.545C360.622 531.577 357.159 538.451 356.389 545.866C355.619 553.28 357.595 560.72 361.943 566.775C366.292 572.829 372.71 577.079 379.983 578.717Z" fill="#FFB6B6"/>
<path id="Vector_58" d="M571.758 453.69L522.598 340.55C518.577 331.261 511.396 323.697 502.328 319.2C499.525 317.82 496.581 316.747 493.548 316C493.078 315.88 492.608 315.77 492.138 315.679C485.706 314.276 479.034 314.399 472.658 316.04C466.83 317.537 461.383 320.246 456.672 323.99C451.961 327.734 448.092 332.43 445.318 337.77C445.288 337.814 445.261 337.861 445.238 337.909C442.139 343.904 440.491 350.543 440.427 357.29C440.363 364.038 441.884 370.707 444.868 376.76L445.478 377.98L480.218 447.75C481.404 450.135 482.073 452.745 482.179 455.407C482.286 458.07 481.829 460.724 480.837 463.198C479.846 465.671 478.342 467.906 476.426 469.757C474.51 471.609 472.224 473.034 469.718 473.939L467.278 474.82L423.398 490.669C420.105 491.844 417.397 494.251 415.843 497.383C414.29 500.515 414.012 504.127 415.068 507.46L415.178 507.81L427.478 547.169C427.538 547.35 427.598 547.53 427.668 547.709C427.776 548.049 427.91 548.38 428.068 548.699C429.375 551.631 431.686 554 434.584 555.381C437.482 556.761 440.778 557.062 443.878 556.229L467.558 549.979L472.388 548.699L533.538 532.55C541.584 530.423 549.076 526.584 555.5 521.293C561.924 516.003 567.129 509.386 570.759 501.897C574.389 494.408 576.357 486.223 576.53 477.903C576.702 469.582 575.074 461.322 571.758 453.689V453.69Z" fill="#97C7FF"/>
<path id="Vector_59" d="M87.898 548.7C102.068 565.983 117.351 582.325 133.648 597.62H585.618C589.972 597.626 594.147 599.36 597.225 602.44C600.303 605.52 602.034 609.695 602.038 614.05L602.688 728.58C630.493 715.805 656.531 699.493 680.158 680.05C686.718 674.66 693.075 669.036 699.228 663.18C703.258 659.36 707.191 655.446 711.028 651.44C739.792 621.475 763.084 586.702 779.848 548.7H87.898Z" fill="#3F3D56"/>
<path id="Vector_60" d="M711.028 651.44C707.198 655.45 703.265 659.363 699.228 663.18H603.018V651.44H711.028Z" fill="white"/>
<path id="Vector_61" d="M501.648 275.95C501.173 275.072 500.469 274.34 499.612 273.829C498.755 273.319 497.776 273.049 496.778 273.05H168.938C167.468 273.053 166.06 273.64 165.021 274.68C163.983 275.72 163.399 277.13 163.398 278.6V474.82H502.328V278.6C502.333 277.672 502.099 276.76 501.648 275.95Z" fill="#3F3D56"/>
<path id="Vector_62" d="M163.101 469.507V493.721C163.101 494.725 163.299 495.719 163.683 496.646C164.067 497.574 164.63 498.416 165.34 499.126C166.05 499.836 166.892 500.399 167.82 500.783C168.747 501.167 169.741 501.365 170.745 501.365H295.842V549.151H294.18C294.049 549.151 293.92 549.177 293.8 549.227C293.679 549.277 293.57 549.35 293.478 549.442C293.385 549.534 293.312 549.644 293.262 549.764C293.213 549.885 293.187 550.014 293.187 550.144V553.468C293.187 553.599 293.212 553.728 293.262 553.848C293.312 553.969 293.385 554.078 293.478 554.17C293.57 554.263 293.679 554.336 293.8 554.386C293.92 554.435 294.049 554.461 294.18 554.461H371.838C371.969 554.461 372.098 554.435 372.218 554.386C372.339 554.336 372.448 554.263 372.54 554.17C372.633 554.078 372.706 553.969 372.756 553.848C372.806 553.728 372.831 553.599 372.831 553.468V550.144C372.831 550.014 372.806 549.885 372.756 549.764C372.706 549.644 372.633 549.534 372.54 549.442C372.448 549.35 372.339 549.277 372.218 549.227C372.098 549.177 371.969 549.151 371.838 549.151H370.176V501.365H495.273C496.277 501.365 497.271 501.167 498.198 500.783C499.126 500.399 499.968 499.836 500.678 499.126C501.388 498.416 501.951 497.574 502.335 496.646C502.719 495.719 502.917 494.725 502.917 493.721V469.507H163.101Z" fill="#3F3D56"/>
<g id="Group_2" filter="url(#filter0_i_1_131)">
<path id="Vector_63" d="M333.306 403.613C350.596 403.613 364.613 389.596 364.613 372.306C364.613 355.016 350.596 341 333.306 341C316.016 341 302 355.016 302 372.306C302 389.596 316.016 403.613 333.306 403.613Z" fill="#A8A9D7"/>
<path id="Vector_64" d="M364.113 372.306C364.113 389.32 350.32 403.113 333.306 403.113C316.292 403.113 302.5 389.32 302.5 372.306C302.5 355.293 316.292 341.5 333.306 341.5C350.32 341.5 364.113 355.293 364.113 372.306Z" stroke="#A8A9D7"/>
</g>
<g id="me">
<path id="Vector_65" d="M325.814 265.055C363.548 265.055 394.136 234.466 394.136 196.733C394.136 159 363.548 128.411 325.814 128.411C288.081 128.411 257.493 159 257.493 196.733C257.493 234.466 288.081 265.055 325.814 265.055Z" fill="#FFD3D3"/>
<path id="Vector_66" d="M385.646 146.64C385.646 146.64 403.515 112.479 364.202 109.374C364.202 109.374 330.687 78.9717 296.526 103.816C296.526 103.816 277.893 103.816 267.704 124.902C267.704 124.902 253.049 119.344 249.828 134.218C249.828 134.218 239.105 165.274 249.828 193.223C260.552 221.173 264.114 224.279 264.114 224.279C264.114 224.279 246.493 165.68 289.384 162.575C332.274 159.469 380.27 132.665 383.845 166.826C387.419 200.987 392.798 209.404 392.798 209.404C392.798 209.404 426.748 160.615 385.646 146.64Z" fill="#2F2E41"/>
<path id="Vector_67" d="M408.668 193H403.668C403.668 155.2 366.258 130.43 328.518 130.41C323.029 130.394 317.551 130.926 312.168 132C306.108 133.21 299.818 134.66 293.638 136.55C269.268 144.02 246.668 158.46 246.668 193C246.663 199.707 247.516 206.388 249.208 212.88L244.368 214.14C242.573 207.236 241.665 200.132 241.668 193C241.668 162.82 254.058 142.09 275.458 129.73C286.708 123.23 300.438 119.04 316.168 117C322.714 116.129 329.331 115.928 335.918 116.4C379.318 119.52 408.668 152.8 408.668 193Z" fill="#E66465"/>
<path id="Vector_68" d="M416.998 195.77L415.028 181.21C414.542 177.533 412.771 174.146 410.028 171.65C408.267 170.022 406.159 168.816 403.864 168.123C401.568 167.43 399.145 167.268 396.778 167.65L393.648 168.08C392.792 168.192 391.966 168.474 391.219 168.908C390.473 169.343 389.819 169.921 389.298 170.61C388.772 171.296 388.387 172.08 388.166 172.916C387.945 173.751 387.891 174.623 388.008 175.48L392.558 209.02C392.746 210.387 393.358 211.66 394.309 212.66C395.261 213.659 396.502 214.334 397.858 214.59C398.26 214.67 398.668 214.71 399.078 214.71C399.372 214.709 399.666 214.689 399.958 214.65L403.458 214.18C405.592 213.896 407.645 213.18 409.492 212.074C411.339 210.968 412.941 209.497 414.198 207.75C414.468 207.37 414.728 206.98 414.968 206.579C416.842 203.307 417.558 199.499 416.998 195.77Z" fill="#E66465"/>
<path id="Vector_69" d="M391.628 168.69C390.71 169.136 389.911 169.794 389.298 170.61C388.772 171.296 388.387 172.08 388.166 172.916C387.945 173.751 387.891 174.623 388.008 175.48L392.558 209.02C392.746 210.387 393.358 211.66 394.309 212.66C395.261 213.659 396.502 214.334 397.858 214.59L391.628 168.69Z" fill="white"/>
<path id="Vector_70" d="M416.998 195.77L415.028 181.21C414.542 177.533 412.771 174.146 410.028 171.65L414.558 205.02C414.626 205.555 414.764 206.08 414.968 206.58C416.842 203.307 417.558 199.499 416.998 195.77Z" fill="#3F3D56"/>
<path id="Vector_71" d="M401.428 206.26C402.796 206.075 403.484 202.819 402.965 198.988C402.445 195.157 400.915 192.202 399.546 192.387C398.178 192.573 397.49 195.829 398.01 199.66C398.53 203.491 400.06 206.446 401.428 206.26Z" fill="#3F3D56"/>
<path id="Vector_72" d="M398.428 188.26C399.796 188.075 400.484 184.819 399.965 180.988C399.445 177.157 397.915 174.202 396.546 174.387C395.178 174.573 394.49 177.829 395.01 181.66C395.53 185.491 397.06 188.446 398.428 188.26Z" fill="#3F3D56"/>
<path id="Vector_73" d="M417.428 195.26C418.796 195.075 419.484 191.819 418.965 187.988C418.445 184.157 416.915 181.202 415.546 181.387C414.178 181.573 413.49 184.829 414.01 188.66C414.53 192.491 416.06 195.446 417.428 195.26Z" fill="#3F3D56"/>
<path id="Vector_74" d="M328.518 130.41C323.029 130.393 317.551 130.926 312.168 132C306.108 133.21 299.818 134.66 293.638 136.55C283.988 136.08 276.888 133.58 275.458 129.73C286.708 123.23 300.438 119.04 316.168 117C322.714 116.129 329.331 115.928 335.918 116.4C336.615 116.808 337.218 117.36 337.687 118.018C338.156 118.677 338.48 119.427 338.638 120.22C339.108 123.7 335.138 127.4 328.518 130.41Z" fill="#3F3D56"/>
<path id="Vector_75" d="M264.678 227.7L256.978 195.69C256.703 194.535 256.094 193.487 255.226 192.677C254.357 191.868 253.269 191.333 252.098 191.14C251.767 191.088 251.433 191.061 251.098 191.06C250.626 191.061 250.156 191.118 249.698 191.23L246.718 191.95C242.881 192.878 239.569 195.29 237.509 198.657C235.448 202.024 234.808 206.071 235.728 209.91L239.178 224.27C239.966 227.65 241.842 230.679 244.518 232.89C244.952 233.24 245.406 233.564 245.878 233.86C247.554 234.91 249.424 235.614 251.377 235.93C253.33 236.246 255.326 236.168 257.248 235.7L260.218 234.98C261.003 234.796 261.742 234.453 262.388 233.97C263.348 233.269 264.079 232.299 264.487 231.183C264.894 230.066 264.961 228.854 264.678 227.7Z" fill="#E66465"/>
<path id="Vector_76" d="M248.536 221.744C249.878 221.421 250.233 218.112 249.329 214.353C248.424 210.594 246.603 207.809 245.26 208.132C243.918 208.455 243.563 211.764 244.467 215.523C245.372 219.282 247.193 222.067 248.536 221.744Z" fill="#3F3D56"/>
<path id="Vector_77" d="M238.536 224.744C239.878 224.421 240.233 221.112 239.329 217.353C238.424 213.594 236.603 210.809 235.26 211.132C233.918 211.455 233.563 214.764 234.467 218.523C235.372 222.282 237.193 225.067 238.536 224.744Z" fill="#3F3D56"/>
<path id="Vector_78" d="M265.168 227.58L257.468 195.57C257.168 194.32 256.506 193.187 255.565 192.312C254.624 191.436 253.446 190.858 252.178 190.65L262.688 234.37C263.726 233.609 264.515 232.559 264.957 231.35C265.398 230.142 265.472 228.83 265.168 227.58Z" fill="white"/>
<path id="Vector_79" d="M237.468 203.57C237.256 202.679 236.857 201.844 236.298 201.12C235.216 203.923 235.017 206.99 235.728 209.91L239.178 224.27C239.966 227.65 241.842 230.679 244.518 232.89L237.468 203.57Z" fill="#3F3D56"/>
</g>
<path id="Vector_80" d="M115 520H87V548H115V520Z" fill="#D0CDE1"/>
<path id="Vector_81" d="M67 545V579H101V545H67ZM99.52 577.52H68.47V546.48H99.52V577.52Z" fill="#3F3D56"/>
<path id="Vector_82" d="M735 521H707V549H735V521Z" fill="#D0CDE1"/>
<path id="Vector_83" d="M723 535V569H757V535H723ZM755.52 567.52H724.47V536.48H755.52V567.52Z" fill="#3F3D56"/>
</g>
<path id="Vector_84" d="M94.5801 244.574C138.399 244.574 173.92 209.053 173.92 165.234C173.92 121.416 138.399 85.8936 94.5801 85.8936C50.7615 85.8936 15.2396 121.416 15.2396 165.234C15.2396 209.053 50.7615 244.574 94.5801 244.574Z" fill="#9198E5"/>
<path id="Vector_85" d="M122.229 70.9512C115.045 70.0376 107.775 70.0376 100.591 70.9512C84.5863 73.0526 69.5206 79.7011 57.1812 90.1078C44.8419 100.514 35.747 114.243 30.9756 129.663C28.8056 136.691 27.5767 143.975 27.3211 151.325C27.2851 152.347 27.261 153.381 27.261 154.415C27.2833 176.726 36.1561 198.116 51.9323 213.893C67.7084 229.669 89.0991 238.542 111.41 238.564C113.201 238.564 114.992 238.504 116.759 238.396C120.908 238.135 125.03 237.565 129.093 236.689C148.495 232.516 165.798 221.622 177.947 205.93C190.096 190.237 196.308 170.756 195.487 150.928C194.666 131.1 186.864 112.199 173.459 97.5652C160.054 82.9311 141.909 73.5048 122.229 70.9512ZM137.748 231.808H137.736C130.959 234.12 123.905 235.523 116.759 235.979C114.992 236.099 113.201 236.16 111.41 236.16C89.738 236.133 68.9613 227.512 53.6369 212.188C38.3126 196.863 29.6917 176.087 29.6652 154.415C29.6652 153.381 29.6892 152.347 29.7253 151.325C30.5517 130.205 39.5159 110.223 54.7414 95.5621C69.9669 80.9013 90.2733 72.6983 111.41 72.6702C130.776 72.6713 149.513 79.5477 164.283 92.0744C179.052 104.601 188.895 121.964 192.057 141.071C195.22 160.177 191.496 179.786 181.55 196.403C171.604 213.021 156.082 225.567 137.748 231.808Z" fill="#3F3D56"/>
<path id="Vector_86" d="M112.612 77.4787H110.208V94.3085H112.612V77.4787Z" fill="#3F3D56"/>
<path id="Vector_87" d="M57.8578 99.1628L56.1578 100.863L68.0582 112.763L69.7583 111.063L57.8578 99.1628Z" fill="#3F3D56"/>
<path id="Vector_88" d="M34.4737 153.213V155.617H51.3035V153.213H34.4737Z" fill="#3F3D56"/>
<path id="Vector_89" d="M56.1577 207.967L57.8578 209.667L69.7582 197.767L68.0582 196.066L56.1577 207.967Z" fill="#3F3D56"/>
<path id="Vector_90" d="M153.061 111.063L154.761 112.763L166.662 100.863L164.962 99.1628L153.061 111.063Z" fill="#3F3D56"/>
<path id="Vector_91" d="M171.516 153.213V155.617H188.346V153.213H171.516Z" fill="#3F3D56"/>
<path id="Vector_92" d="M154.762 196.067L153.062 197.767L164.962 209.667L166.662 207.967L154.762 196.067Z" fill="#3F3D56"/>
<path id="Vector_93" d="M112.612 214.521H110.208V231.351H112.612V214.521Z" fill="#3F3D56"/>
<path id="Vector_94" d="M115.016 149.606C113.976 148.826 112.71 148.404 111.41 148.404C110.109 148.404 108.844 148.826 107.803 149.606C107.091 150.147 106.505 150.836 106.084 151.626C105.552 152.643 105.322 153.791 105.421 154.934C105.52 156.077 105.944 157.169 106.643 158.078C107.343 158.988 108.288 159.679 109.368 160.069C110.447 160.459 111.616 160.531 112.735 160.278C113.855 160.025 114.878 159.457 115.685 158.641C116.492 157.824 117.048 156.794 117.288 155.672C117.528 154.549 117.441 153.382 117.039 152.307C116.636 151.232 115.934 150.295 115.016 149.606ZM111.41 158.021C110.454 158.018 109.539 157.638 108.863 156.962C108.187 156.286 107.806 155.371 107.803 154.415C107.808 153.686 108.03 152.974 108.441 152.371C108.793 151.861 109.271 151.451 109.828 151.179C110.385 150.908 111.003 150.785 111.622 150.822C112.241 150.859 112.84 151.056 113.361 151.392C113.881 151.729 114.306 152.194 114.595 152.742C114.883 153.291 115.025 153.905 115.007 154.525C114.988 155.144 114.811 155.749 114.49 156.28C114.17 156.81 113.718 157.25 113.179 157.555C112.639 157.86 112.03 158.021 111.41 158.021Z" fill="#3F3D56"/>
<path id="Vector_95" d="M122.229 49.8298H100.591V71.4681H122.229V49.8298Z" fill="#3F3D56"/>
<path id="Vector_96" d="M111.41 53.4362C127.344 53.4362 140.261 48.8614 140.261 43.2181C140.261 37.5748 127.344 33 111.41 33C95.4759 33 82.5588 37.5748 82.5588 43.2181C82.5588 48.8614 95.4759 53.4362 111.41 53.4362Z" fill="#3F3D56"/>
<path id="Clock-arrow" d="M115.016 108.734H107.803V149.606H115.016V108.734Z" fill="#3F3D56"/>
<path id="Vector_97" d="M226 234.901H0V237.306H226V234.901Z" fill="#3F3D56"/>
<path id="Vector_98" d="M530.963 168C504.72 155.336 486.373 129.68 484.057 102.406C482.728 86.7576 504.905 75.93 520.382 82.3989C535.859 88.8677 542.925 106.423 541.258 122.044C539.59 137.664 531.071 151.85 530.963 168Z" fill="#9198E5" fill-opacity="0.5"/>
<path id="Vector_99" d="M530.963 168C504.72 155.336 486.373 129.68 484.057 102.406C482.728 86.7576 504.905 75.93 520.382 82.3989C535.859 88.8677 542.925 106.423 541.258 122.044C539.59 137.664 531.071 151.85 530.963 168Z" fill="#C27A9B" fill-opacity="0.5"/>
<path id="Vector_100" d="M573.744 76.1243L573.743 76.1236L573.753 76.1495L573.754 76.1504C573.751 76.1418 573.748 76.1329 573.744 76.1243Z" fill="black"/>
<path id="Vector_101" d="M588.328 71.6223C583.385 59.164 567.893 56.9621 556.482 63.3816C554.617 64.3699 552.821 65.4665 551.106 66.6649C547.032 59.1899 540.741 51.9088 531.963 49.3048C522.663 47.7138 513.074 52.5758 506.789 58.6478C501.278 64.2357 498.67 71.5862 495.821 78.5343C492.135 87.4415 493.022 97.1219 495.483 106.196C498.222 117.438 505.038 127.303 512.429 136.415C521.037 147.225 530.701 157.265 540.122 167.465C531.979 154.803 523.219 142.461 515.904 129.361C511.152 120.965 508.137 114.644 506.427 103.93C505.925 100.682 505.669 97.4064 505.658 94.126C505.747 90.3432 505.963 90.3689 506.028 89.7269C507.503 82.7881 513.501 71.943 516.062 68.9308C516.805 68.1408 517.622 67.4127 518.503 66.7546C519.036 66.3976 519.597 66.0777 520.182 65.7979C522.293 64.8711 521.521 64.88 526.165 63.6928L526.167 63.6926C526.514 63.6788 526.835 63.678 527.094 63.6823C527.209 63.7438 527.323 63.8036 527.435 63.8689C531.804 67.6667 530.51 66.6697 532.561 69.0523C532.735 69.2791 532.909 69.5059 533.082 69.7329C534.303 71.379 535.39 73.1071 536.332 74.9028C537.209 76.1095 539.887 87.2046 550.823 84.817C552.679 84.2414 554.388 83.3197 555.843 82.1091C556.794 81.44 558.435 80.2716 559.397 79.5674C560.642 78.7172 563.233 76.9665 564.201 76.4946C565.009 76.031 565.846 75.6127 566.708 75.242C567.717 74.8737 568.756 74.5827 569.816 74.372C570.019 74.3609 570.222 74.3334 570.425 74.3362C570.508 74.3369 570.59 74.3504 570.673 74.353C571.066 74.4428 571.617 74.5721 572.167 74.7297C572.272 74.7844 572.376 74.8379 572.478 74.897C572.729 75.1134 573.033 75.3873 573.327 75.6813C573.581 76.0319 573.811 76.3967 574.016 76.7736C574.76 78.6479 575.374 80.5644 575.854 82.5113C577.64 89.2005 577.274 94.0175 576.014 99.6754C571.031 121.117 557.7 137.347 543.934 157.454C542.386 159.595 540.807 161.717 539.196 163.819C544.653 159.062 549.851 154.056 554.87 148.904C565.598 137.951 576.59 126.905 583.42 113.385C586.901 106.717 589.873 99.6907 590.728 92.2801C591.454 85.3151 590.638 78.2863 588.328 71.6223Z" fill="black"/>
<g id="Group_3">
<path id="Vector_102" d="M1025.68 66.2747C1026.29 79.2109 1030.28 91.831 1037.31 103.101C1032.84 86.1753 1034.01 68.4276 1040.68 52.1076L1041.63 50.9638C1037.92 47.976 1031.59 49.6655 1028.68 53.3145C1025.78 56.9632 1025.47 61.7778 1025.68 66.2747Z" fill="#97C7FF"/>
<path id="Vector_103" d="M874.242 98.4515C872.574 102.274 868.104 105.43 863.694 104.477C860.882 103.869 858.76 101.801 857.03 99.7C852.715 94.4462 849.723 88.3973 848.267 81.9804C842.409 88.8777 839.283 97.3641 839.396 106.07C839.454 109.457 840.085 113.001 842.359 115.689C845.867 119.833 852.464 120.866 858.103 119.794C861.974 119.057 865.601 117.508 868.691 115.269C871.782 113.03 874.25 110.165 875.898 106.903C877.546 103.642 878.327 100.075 878.178 96.4905C878.029 92.9056 876.955 89.4023 875.042 86.2624C875.49 90.3537 875.911 94.6286 874.242 98.4515Z" fill="#97C7FF"/>
<path id="Vector_104" d="M699.111 100.274C697.442 104.097 692.972 107.253 688.563 106.3C685.75 105.692 683.629 103.624 681.898 101.523C677.583 96.2688 674.592 90.22 673.135 83.803C667.277 90.7003 664.152 99.1867 664.264 107.893C664.323 111.28 664.953 114.824 667.228 117.511C670.736 121.656 677.332 122.688 682.971 121.616C686.842 120.88 690.469 119.33 693.56 117.091C696.65 114.853 699.119 111.987 700.766 108.726C702.414 105.465 703.195 101.898 703.046 98.3131C702.898 94.7282 701.824 91.225 699.911 88.085C700.358 92.1763 700.78 96.4513 699.111 100.274Z" fill="#97C7FF"/>
<path id="Vector_105" d="M665.169 100.274C663.5 104.097 659.031 107.253 654.621 106.3C651.808 105.692 649.687 103.624 647.957 101.523C643.641 96.2688 640.65 90.22 639.194 83.803C633.335 90.7003 630.21 99.1867 630.323 107.893C630.381 111.28 631.012 114.824 633.286 117.511C636.794 121.656 643.391 122.688 649.029 121.616C652.901 120.88 656.527 119.33 659.618 117.091C662.709 114.853 665.177 111.987 666.825 108.726C668.473 105.465 669.253 101.898 669.105 98.3131C668.956 94.7282 667.882 91.225 665.969 88.085C666.417 92.1763 666.838 96.4513 665.169 100.274Z" fill="#97C7FF"/>
<path id="Vector_106" d="M708.752 55.0652C707.717 59.2623 706.826 66.748 705.732 72.0651C703.999 81.1866 703.025 86.5912 701.13 94.8929C699.321 102.552 697.69 107.886 694.712 113.171C692.759 116.278 693.523 115.334 691.035 117.569C688.328 119.579 689.76 118.803 686.72 120.363C686.689 120.376 686.657 120.388 686.626 120.401C686.598 120.411 686.57 120.421 686.542 120.43C686.303 120.509 686.062 120.581 685.817 120.646C685.534 120.724 685.25 120.783 685.029 120.825C684.447 120.882 683.86 120.887 683.277 120.84C682.807 120.745 682.26 120.59 681.94 120.5C681.65 120.368 681.369 120.219 681.101 120.053C681.031 119.992 680.945 119.917 680.841 119.825C678.655 117.521 678.89 118.088 677.064 114.733C676.618 113.825 676.92 114.441 677.161 114.97C674.959 110.661 674.022 103.994 673.751 102.048C673.103 97.3396 672.622 92.5905 672.405 87.8344C672.928 84.2827 673.363 80.7157 673.613 77.1398C673.671 74.6581 674.229 72.0075 673.259 69.6297C672.124 66.9421 668.035 66.3751 666.186 68.791C665.27 69.7574 665.216 71.0856 665.042 72.2931C664.876 73.8707 664.87 75.456 664.859 77.0393C664.89 78.8107 664.926 80.7446 664.983 82.786C664.916 83.4339 664.849 84.0818 664.782 84.7295C663.778 93.2441 661.553 104.58 656.695 112.014C653.302 117.349 648.383 119.411 646.085 119.187C641.571 118.529 639.924 116.085 636.156 110.198C630.845 101.378 628.709 90.579 627.65 80.0278C627.279 74.265 626.531 68.2145 628.421 62.6157C626.803 65.0316 626.192 67.8686 625.546 70.5995C624.682 74.8787 624.183 79.2121 624.055 83.5609C623.59 96.8814 625.965 111.526 636.287 121.661C644.985 129.413 656.062 125.106 662.244 117.037C664.287 114.212 665.974 111.186 667.272 108.019C668.704 115.845 672.742 126.273 681.722 127.753C686.837 128.752 691.862 126.592 695.61 123.538C699.745 120.767 702.073 116.549 704.021 112.353C706.047 108.219 707.167 103.79 707.958 99.3386C710.373 84.6946 710.433 69.7789 708.752 55.0652Z" fill="black"/>
<path id="Vector_107" d="M749.227 121.42C744.517 121.905 740.318 121.859 737.119 121.175C730.432 119.895 724.878 116.962 723.781 115.616C718.558 108.602 718.044 103.057 719.228 96.6345C720.52 90.3266 721.256 88.6229 725.346 83.2194C726.757 81.7289 729.608 79.1431 732.454 79.2113C736.026 79.2303 742.11 80.6903 744.31 83.3577C745.542 85.6896 747.751 88.992 741.499 93.996C737.764 96.4691 732.697 97.0956 728.271 98.3631C734.503 97.7864 741.668 98.102 746.322 93.6327C750.945 89.962 751.386 84.2812 748.395 79.5917C746.909 77.4743 744.538 76.0774 742.138 74.9205C736.742 72.4333 730.005 71.2356 724.575 74.2781C712.913 81.0606 707.001 99.4662 712.094 111.04C714.395 116.321 718.101 121.703 724.362 123.532C732.41 126.307 741.3 126.31 749.35 123.541C752.365 122.584 755.263 121.348 757.998 119.852C755.128 120.596 752.194 121.121 749.227 121.42Z" fill="black"/>
<path id="Vector_108" d="M793.535 123.566C789.451 123.69 784.899 122.683 781.984 120.422C777.832 117.493 774.424 113.789 771.99 109.56C777.643 103.431 781.581 96.7354 784.893 87.3983C787.671 79.3808 789.777 71.0886 790.374 62.686C790.432 57.5249 790.239 52.2528 788.757 47.2454C786.28 40.9629 781.792 37.1875 774.32 40.358C762.536 44.9439 758.309 60.0077 757.67 73.207C757.078 86.2594 758.901 100.644 766.86 111.828C764.458 114.883 762.018 117.522 759.277 120.765C762.346 118.468 765.286 116.033 768.085 113.468C768.66 114.196 769.263 114.909 769.895 115.606C773.711 119.425 778.499 122.669 783.943 124.267C787.219 125.13 790.742 124.712 793.992 123.947C794.602 123.79 795.203 123.605 795.799 123.409C795.048 123.497 794.292 123.549 793.535 123.566ZM774.031 47.4433C777.226 45.5196 777.324 45.788 778.382 45.5437C778.631 45.5267 778.881 45.5218 779.131 45.529C779.272 45.5561 779.41 45.5869 779.548 45.6245L779.579 45.6421C779.63 45.6867 779.693 45.7436 779.756 45.8017C780.254 46.4609 780.707 47.147 781.113 47.8563C781.354 48.3713 781.453 48.2691 782.011 50.3714C783.108 56.3233 783.221 62.39 782.348 68.3722C781.869 70.9048 779.487 83.8366 777.648 89.6465C775.721 96.3719 773.862 101.129 770.484 106.624C768.657 102.585 767.456 98.0562 766.312 92.768C763.506 80.6103 762.995 54.5443 774.031 47.4433Z" fill="black"/>
<path id="Vector_109" d="M802.698 102.17C802.647 102.481 802.637 102.597 802.698 102.17V102.17Z" fill="black"/>
<path id="Vector_110" d="M820.903 121.931C816.627 121.906 812.752 121.292 810.132 120.271C806.088 118.068 803.865 115.681 802.988 111.268C802.869 110.714 802.087 105.044 802.752 101.781C802.73 101.943 802.712 102.07 802.698 102.17C802.729 101.98 802.775 101.719 802.83 101.461C803.663 97.3633 805.27 92.76 806.381 90.7094C806.288 90.9089 806.195 91.1083 806.103 91.3076C807.446 88.5886 808.594 85.756 810.472 83.2897C811.795 81.7076 813.321 80.2739 815.018 79.0188C817.365 77.2922 820.219 76.2854 822.866 75.0081C812.415 76.6274 806.922 80.1037 801.593 88.4102C798.543 92.6803 796.507 97.4799 795.616 102.503C795.068 105.507 795.549 108.548 796.089 111.523C796.974 117.086 801.395 121.858 807.122 123.905C812.915 125.7 819.361 124.353 824.921 122.444C825.598 122.19 826.269 121.922 826.929 121.637C824.931 121.87 822.917 121.968 820.903 121.931Z" fill="black"/>
<path id="Vector_111" d="M881.128 94.4339C879.584 90.018 875.774 86.3671 871.262 84.2849C866.523 82.4041 861.221 82.1722 856.119 81.99C855.911 81.9671 855.046 81.9571 855.564 82.0252C858.468 82.6476 861.314 83.4734 864.076 84.4954C865.857 85.1688 867.558 86.0046 869.153 86.9901C870.452 87.9373 871.586 89.0578 872.516 90.3132C877.158 96.1399 875.352 102.587 870.108 109.782C868.261 111.736 859.548 117.579 855.687 116.974C848.392 116.906 839.098 108.48 840.131 97.8543C840.009 96.195 841.711 91.6612 842.677 89.9315C844.149 87.0644 845.563 84.7542 848.132 82.7726C850.013 81.2991 852.301 80.3176 854.75 79.9332C856.716 79.6582 858.723 79.8335 860.704 79.7744C848.697 76.4579 841.535 82.5012 836.176 91.6564C829.981 102.272 834.566 116.69 846.189 122.527C856.599 128.044 867.302 123.108 875.135 116.221C880.641 110.71 883.38 101.652 881.128 94.4339Z" fill="black"/>
<path id="Vector_112" d="M964.586 86.8658C962.275 79.4847 954.858 71.6683 945.852 76.1339C940.936 79.1247 938.84 84.291 937.112 89.2688C936.245 86.6868 934.827 84.2847 932.938 82.1994C931.035 79.8354 928.326 77.6906 924.971 77.5116C921.431 77.5251 917.765 78.8472 915.512 81.38C912.986 84.1686 911.728 87.6679 910.112 90.9196C909.111 93.0714 908.121 95.2404 907.301 97.4559C905.653 92.388 903.604 87.4345 901.17 82.6343C903.577 91.94 904.325 100.736 904.588 110.211C904.374 112.06 904.223 113.915 904.181 115.776C904.235 118.124 903.889 121.24 906.43 122.634C907.324 123.096 908.383 123.222 909.379 122.985C910.375 122.748 911.229 122.167 911.758 121.367C912.368 120.401 912.363 119.306 912.233 118.215C912.25 116.254 912.672 114.296 912.906 112.344C913.558 108.888 914.191 105.424 915.071 102.008C915.826 99.4805 916.779 97.0051 917.921 94.6003C919.029 92.0246 920.32 89.5169 921.787 87.0931C921.906 86.9205 922.04 86.7575 922.169 86.5905C922.367 86.3937 922.572 86.214 922.722 86.0871C922.881 85.9987 923.038 85.9202 923.17 85.8573C923.498 85.7474 923.834 85.6595 924.175 85.594C924.253 85.6594 924.337 85.7176 924.411 85.786C926.129 87.6662 926.127 87.2853 927.924 90.5218C927.933 90.5437 927.938 90.5557 927.948 90.5788C930.178 96.7587 930.814 104.119 931.308 107.447C931.452 109.174 931.635 110.904 931.764 112.636C931.533 114.714 931.395 116.635 931.354 118.319C931.179 123.29 937.317 125.436 940.332 121.069C941.766 118.386 941.091 115.268 941.006 112.395C940.939 111.352 940.844 110.312 940.745 109.273C941.476 103.299 942.884 97.4091 944.944 91.6965C946.652 86.9282 947.292 85.5603 949.306 83.5127C949.516 83.2978 949.74 83.0942 949.976 82.9028C950.164 82.7892 950.357 82.6839 950.557 82.5865C950.597 82.5764 950.636 82.5643 950.677 82.5552C950.899 82.547 951.183 82.5415 951.463 82.5515C951.664 82.5906 951.917 82.6456 952.169 82.7151C952.489 82.8631 952.797 83.029 953.094 83.2119C958.481 86.4035 962.889 101.929 966.104 116.351C966.406 117.71 966.683 119.075 966.903 120.448C967.147 118.289 967.289 116.122 967.379 113.954C967.631 104.884 967.419 95.6315 964.586 86.8658Z" fill="black"/>
<path id="Vector_113" d="M1019.28 124.348C1017.26 124.769 1015.2 124.973 1013.12 124.957C998.534 124.935 987.173 116.91 984.508 108.755C983.156 104.246 983.325 104.56 983.045 101.197C983.068 97.6338 982.957 99.7603 983.621 96.0846C985.041 89.2845 987.399 84.9525 990.015 82.4306C991.352 80.9962 992.852 79.6928 994.488 78.5419C994.697 78.4001 994.903 78.2554 995.117 78.1197C998.275 76.2896 997.177 76.9155 999.373 76.1957C1000.34 75.9171 1001.33 75.6917 1002.33 75.5207L1002.34 75.5195C1002.92 75.4801 1003.51 75.4887 1004.09 75.5451C1004.57 75.6475 1005.08 75.7907 1005.42 75.8859C1005.71 76.0193 1005.99 76.169 1006.26 76.3342C1008.29 78.3216 1007.39 77.0595 1008.6 79.1193C1009.94 82.6648 1008.6 87.8328 1006.34 91.9785C1003.58 96.9912 995.831 98.3008 988.407 95.0268C996.152 100.695 1006.65 100.888 1012.12 92.5483C1014.89 88.4798 1016.92 83.7077 1016.39 78.86C1016.15 76.8034 1015.38 74.8266 1014.15 73.0881C1012.91 71.3496 1011.24 69.8978 1009.28 68.8492C1004.95 66.7201 999.804 67.1688 995.313 68.6314C990.212 70.3863 985.902 73.7885 982.493 77.592C978.78 81.4731 976.689 86.3166 975.316 91.2468C974.575 93.893 974.067 96.588 973.795 99.3069C973.821 106.116 976.14 113.1 981.228 118.216C990.446 127.434 1006.59 130.05 1018.91 124.709C1019.52 124.408 1020.65 123.991 1019.28 124.348Z" fill="black"/>
<path id="Vector_114" d="M1038.33 114.872C1033.92 114.971 1033.94 120.828 1038.33 120.938C1042.74 120.839 1042.73 114.982 1038.33 114.872Z" fill="black"/>
<path id="Vector_115" d="M1050.31 62.5324C1049.6 58.1683 1048.2 53.9212 1046.14 49.9255C1043.81 44.8068 1039.86 39.9504 1034.33 37.4058C1025.09 33.8334 1020.52 41.7308 1019.79 48.9516C1019.18 53.5689 1020.37 58.1795 1021.34 62.69C1024.52 76.2761 1031.81 88.6313 1036.76 101.698C1035.98 103.487 1035.23 105.286 1034.63 107.132C1038.78 101.278 1043.35 95.6362 1046.84 89.4152C1051.75 81.5462 1051.42 67.8252 1050.31 62.5324ZM1038.11 98.5941C1037.66 99.6291 1037.21 100.662 1036.76 101.697C1034.8 89.1916 1028.72 71.4403 1027.5 61.7751C1027.02 58.0995 1026.34 54.4086 1026.6 50.6961C1026.61 48.7267 1027.91 44.3564 1029.1 43.235L1029.12 43.2214C1029.26 43.1359 1029.4 43.0561 1029.55 42.9831C1029.68 42.9458 1029.8 42.9151 1029.91 42.8914C1030.02 42.8867 1030.13 42.8846 1030.24 42.8867C1031.09 43.0369 1030.94 42.9789 1032.29 43.7949C1037.47 47.9919 1037.91 50.518 1040.47 56.5926C1043.24 65.2504 1043.64 69.4768 1043.95 78.4058C1044.4 85.0865 1041.35 91.221 1038.11 98.5941Z" fill="black"/>
<path id="Vector_116" d="M838.572 61.5296C834.164 61.6287 834.176 67.4855 838.572 67.5955C842.98 67.4964 842.969 61.6396 838.572 61.5296Z" fill="black"/>
<path id="Vector_117" d="M864.091 62.3011C859.684 62.4002 859.695 68.257 864.091 68.3669C868.5 68.2678 868.488 62.411 864.091 62.3011Z" fill="black"/>
<path id="Vector_118" d="M872.279 34.1326C870.929 32.5725 869.968 30.7967 868.815 29.129C867.831 27.922 866.566 26.9268 865.11 26.2144C863.653 25.5021 862.041 25.0901 860.389 25.0079C858.343 24.9456 856.308 25.3145 854.445 26.0857C852.583 26.8569 850.942 28.0094 849.654 29.4526C847.824 31.3734 847.585 31.8696 846.388 32.4399C846.177 32.5023 845.888 32.5819 845.621 32.6352C845.51 32.6414 845.371 32.6455 845.222 32.6432C845.037 32.6036 844.786 32.5455 844.555 32.4751L844.545 32.4707C840.406 30.5452 835.223 28.4136 830.744 30.6621C826.518 33.1389 826.183 38.7427 827.302 42.7846C828.519 46.4102 831.457 49.2325 833.894 52.2188C832.19 48.7967 829.711 45.495 829.437 41.6539C829.361 39.3834 829.96 37.1363 831.171 35.148C831.992 34.2334 833.053 33.774 833.816 33.865C835.464 33.9818 836.772 34.2444 839.029 35.5328C841.14 36.7269 843.27 38.2558 845.894 38.1507C850.511 38.1706 852.641 35.1778 855.328 32.34C855.545 32.1214 855.938 31.8078 856.154 31.6358C856.195 31.6095 856.235 31.5809 856.277 31.5555C856.579 31.3711 856.896 31.2082 857.226 31.0683C857.338 31.0294 857.448 30.9862 857.561 30.9516C860.034 30.4231 858.698 30.482 860.953 30.5586C861.133 30.5889 861.338 30.6277 861.52 30.6728C861.737 30.7245 861.97 30.7928 862.151 30.8482C865.21 32.2811 864.536 32.8957 868.1 36.1655C871.42 39.4608 874.821 41.9304 876.577 45.4261C877.447 47.5353 877.401 49.7641 877.145 52.0688C876.905 53.1762 877.421 51.8291 877.619 51.4324C880.95 44.4448 876.498 39.6444 872.279 34.1326Z" fill="black"/>
<path id="Vector_119" d="M864.005 73.8444C859.397 74.7117 855.692 74.825 850.35 75.2883C853.092 75.7082 855.917 76.0926 858.685 75.6553C860.604 75.3384 862.453 74.7381 864.158 73.8784C864.515 73.6971 864.203 73.8127 864.005 73.8444Z" fill="black"/>
</g>
<g id="Plant-left" clip-path="url(#clip1_1_131)">
<path id="Vector_120" d="M144.86 475.352C145.793 507.302 127.125 519.011 103.696 519.695C103.152 519.711 102.611 519.721 102.071 519.725C100.985 519.733 99.9089 519.715 98.8435 519.67C77.6552 518.791 60.8834 507.543 60.0156 477.83C59.1176 447.08 97.2845 407.127 100.148 404.172L100.153 404.169C100.262 404.056 100.318 404 100.318 404C100.318 404 143.927 443.405 144.86 475.352Z" fill="#D0CDE1"/>
<path id="Vector_121" d="M102.01 514.853L116.892 492.722L102.04 517.234L102.071 519.725C100.985 519.733 99.9088 519.715 98.8434 519.67L99.5816 487.658L99.5613 487.411L99.5886 487.364L99.6592 484.339L83.3613 460.676L99.64 482.075L99.6978 482.714L100.255 458.528L86.1783 433.995L100.295 454.279L100.148 404.172L100.148 404.005L100.153 404.169L101.088 443.66L113.917 427.619L101.13 447.062L101.41 468.697L113.215 447.583L101.453 471.877L101.609 483.907L118.778 454.495L101.661 488.103L102.01 514.853Z" fill="#3F3D56"/>
</g>
<g id="Plant-right" clip-path="url(#clip2_1_131)">
<path id="Vector_122" d="M762.86 476.352C763.793 508.302 745.125 520.011 721.696 520.695C721.152 520.711 720.611 520.721 720.071 520.725C718.985 520.733 717.909 520.715 716.843 520.67C695.655 519.791 678.883 508.543 678.016 478.83C677.118 448.08 715.285 408.127 718.148 405.172L718.153 405.169C718.262 405.056 718.318 405 718.318 405C718.318 405 761.927 444.405 762.86 476.352Z" fill="#D0CDE1"/>
<path id="Vector_123" d="M720.648 515.848L735.531 493.717L720.679 518.229L720.71 520.72C719.623 520.728 718.547 520.71 717.482 520.665L718.22 488.653L718.2 488.407L718.227 488.359L718.298 485.334L702 461.671L718.279 483.07L718.337 483.709L718.894 459.523L704.817 434.99L718.934 455.274L718.787 405.167L718.787 405L718.792 405.164L719.726 444.655L732.556 428.614L719.768 448.058L720.048 469.692L731.854 448.578L720.092 472.872L720.248 484.902L737.416 455.49L720.3 489.098L720.648 515.848Z" fill="#3F3D56"/>
</g>
</g>
<defs>
<filter id="filter0_i_1_131" x="302" y="341" width="62.613" height="66.613" filterUnits="userSpaceOnUse" color-interpolation-filters="sRGB">
<feFlood flood-opacity="0" result="BackgroundImageFix"/>
<feBlend mode="normal" in="SourceGraphic" in2="BackgroundImageFix" result="shape"/>
<feColorMatrix in="SourceAlpha" type="matrix" values="0 0 0 0 0 0 0 0 0 0 0 0 0 0 0 0 0 0 127 0" result="hardAlpha"/>
<feOffset dy="4"/>
<feGaussianBlur stdDeviation="2"/>
<feComposite in2="hardAlpha" operator="arithmetic" k2="-1" k3="1"/>
<feColorMatrix type="matrix" values="0 0 0 0 0 0 0 0 0 0 0 0 0 0 0 0 0 0 0.25 0"/>
<feBlend mode="normal" in2="shape" result="effect1_innerShadow_1_131"/>
</filter>
<clipPath id="clip0_1_131">
<rect width="1051" height="741" fill="white"/>
</clipPath>
<clipPath id="clip1_1_131">
<rect width="85" height="116" fill="white" transform="translate(60 404)"/>
</clipPath>
<clipPath id="clip2_1_131">
<rect width="85" height="116" fill="white" transform="translate(678 405)"/>
</clipPath>
</defs>
</svg>
